<svg width="441" height="127" viewBox="0 0 441 127" fill="none" xmlns="http://www.w3.org/2000/svg">
<path d="M225.477 1.16592C214.085 2.31176 202.764 4.29849 191.69 7.24399C180.596 10.1764 169.875 14.2369 159.239 18.3497C148.632 22.4897 138.115 26.8233 127.652 31.3141C119.533 32.9005 111.492 34.8891 103.56 37.2397C99.5737 38.3986 95.6339 39.711 91.7081 41.0607C87.8011 42.4591 83.909 43.9071 80.0758 45.5C72.4047 48.6719 64.8918 52.2394 57.6753 56.3448C54.0713 58.4017 50.53 60.5708 47.0972 62.9036C43.6699 65.2458 40.3119 67.6834 37.1962 70.4587L37.0418 70.5953L37.1513 70.7702C38.2232 72.4819 39.3616 74.1366 40.4999 75.7913C41.6448 77.4422 42.7963 79.0876 43.9646 80.7217C46.2983 83.9908 48.6518 87.245 51.022 90.4861C48.7275 87.1907 46.4499 83.8832 44.1938 80.5617L40.8264 75.5705C39.7563 73.9589 38.6862 72.3416 37.6873 70.6935C40.7637 68.0716 44.1105 65.735 47.5012 63.5107C50.9584 61.2546 54.5213 59.1612 58.143 57.1829C65.3885 53.2234 72.8837 49.7307 80.5519 46.6739C84.3813 45.1324 88.2669 43.7378 92.1683 42.3908C96.0848 41.0934 100.016 39.8335 103.992 38.727C111.932 36.4727 119.977 34.5972 128.077 33.023L128.168 33.0052L128.258 32.9678C138.739 28.5154 149.297 24.2099 159.921 20.1092C170.56 16.0412 181.226 12.0509 192.207 9.19239C203.186 6.33481 214.375 4.25266 225.673 3.09654C236.969 1.93386 248.35 1.61021 259.708 2.01429C265.388 2.21821 271.061 2.59891 276.724 3.11992C282.386 3.65215 288.038 4.30036 293.691 5.01405C299.348 5.74552 305.014 6.39843 310.656 7.15796L327.599 9.47582L344.538 11.8479L361.491 14.1368C367.143 14.8889 372.798 15.6278 378.458 16.3218C384.118 17.0234 389.786 17.6669 395.47 18.1262C389.798 17.5388 384.156 16.7156 378.511 15.9271C372.866 15.1292 367.227 14.2855 361.592 13.4297L327.774 8.26917L310.849 5.75769C305.2 4.93269 299.544 4.21618 293.901 3.42298C282.602 1.82349 271.208 0.650538 259.775 0.203427C256.348 0.0687328 252.916 -0.00050162 249.484 -0.00050162C241.471 -0.00050162 233.456 0.375529 225.477 1.16592ZM220.765 6.40122C216.157 6.96712 211.563 7.67801 206.986 8.50208C202.412 9.35608 197.871 10.3915 193.372 11.586C188.872 12.7842 184.437 14.1892 180.04 15.6877C175.649 17.2076 171.304 18.838 166.981 20.5114C158.335 23.8638 149.778 27.4042 141.215 30.9221L138.688 31.9595L141.32 32.6797L165.931 39.4201L166.084 39.4621L166.238 39.4491C175.396 38.6727 184.537 37.7541 193.68 36.8487C202.823 35.9339 211.96 34.978 221.092 33.9696C230.226 32.9809 239.349 31.8716 248.46 30.6827C257.569 29.4892 266.675 28.2423 275.725 26.6522C266.633 27.9692 257.509 29.028 248.382 30.0429C239.256 31.0541 230.114 31.9352 220.975 32.8406C211.836 33.7348 202.691 34.5757 193.542 35.3764L166.248 37.6859L144.447 31.6181C152.178 28.4771 159.91 25.3361 167.692 22.356C176.322 19.0588 185.016 15.9486 193.893 13.5101C198.336 12.3109 202.82 11.2689 207.342 10.4046C211.871 9.56934 216.425 8.84442 221.004 8.26355C230.129 7.05224 239.363 6.72768 248.588 6.73049C253.202 6.75855 257.818 6.87827 262.431 7.07657C267.046 7.25991 271.656 7.55174 276.262 7.91093C280.867 8.27199 285.469 8.70881 290.048 9.26256L291.76 9.48424C292.302 9.56188 292.86 9.67504 293.418 9.7957C294.533 10.0389 295.651 10.3195 296.765 10.6095C298.994 11.1932 301.218 11.8217 303.436 12.469C307.872 13.7636 312.283 15.1508 316.681 16.5725C318.879 17.29 321.069 18.0252 323.242 18.8034C324.328 19.1934 325.41 19.5947 326.479 20.0222C327.011 20.2355 327.542 20.4553 328.058 20.6947C328.316 20.8145 328.571 20.937 328.812 21.0698C328.931 21.1372 329.049 21.2055 329.151 21.2775C329.164 21.2859 329.176 21.2943 329.188 21.3037C329.163 21.3196 329.137 21.3355 329.116 21.3495C329.015 21.4225 328.893 21.4889 328.769 21.5543C328.532 21.6909 328.265 21.806 328.012 21.9294C327.491 22.1651 326.961 22.3906 326.428 22.6066C325.36 23.0388 324.28 23.4504 323.196 23.8498C321.028 24.6495 318.845 25.4156 316.657 26.1676C312.28 27.6689 307.895 29.1468 303.492 30.5761C307.93 29.2609 312.363 27.928 316.773 26.5147C318.978 25.8075 321.178 25.0863 323.368 24.3296C324.463 23.9508 325.554 23.5598 326.64 23.1464C327.184 22.9396 327.725 22.7226 328.263 22.4916C328.532 22.369 328.8 22.2587 329.068 22.1137C329.201 22.0454 329.334 21.979 329.472 21.8855C329.544 21.835 329.601 21.8172 329.683 21.7386L329.8 21.6245C329.832 21.5768 329.879 21.5936 329.93 21.3841C329.947 21.2906 329.935 21.2316 329.918 21.1933C329.903 21.1446 329.881 21.0979 329.859 21.0549C329.822 21.0015 329.785 20.9613 329.746 20.9164C329.675 20.8491 329.606 20.7892 329.539 20.7424C329.406 20.6451 329.274 20.5657 329.143 20.4871C328.882 20.3356 328.619 20.2018 328.353 20.0727C327.825 19.8145 327.29 19.5807 326.755 19.3525C325.683 18.8979 324.602 18.4732 323.518 18.0588C321.351 17.2301 319.169 16.4491 316.981 15.6849C312.606 14.1518 308.195 12.7347 303.764 11.3718C301.547 10.6946 299.324 10.0361 297.083 9.4197C295.963 9.1129 294.838 8.81543 293.696 8.55072C293.124 8.41977 292.55 8.29443 291.947 8.20089L290.219 7.95395C285.617 7.33847 281.006 6.84366 276.388 6.42274C267.152 5.58651 257.884 5.03559 248.599 4.96918C248.027 4.96637 247.455 4.9645 246.883 4.9645C238.171 4.9645 229.436 5.28718 220.765 6.40122ZM259.875 12.4681C260.414 13.946 260.992 15.407 261.559 16.8728L263.292 21.2532C263.583 21.9828 263.869 22.7142 264.139 23.4504C264.434 24.18 264.681 24.9217 264.934 25.6719C264.717 24.1023 264.256 22.5814 263.786 21.0773C263.309 19.5723 262.758 18.0953 262.192 16.624C261.607 15.161 261.012 13.7028 260.358 12.2698C259.709 10.834 259.042 9.40753 258.294 8.01475C258.783 9.51697 259.329 10.993 259.875 12.4681ZM177.881 26.1237C177.505 26.1433 177.155 26.1209 176.752 26.1835C175.953 26.2359 175.22 26.5203 174.52 26.7896C173.136 27.3817 171.888 28.1656 170.713 29.0233C169.534 29.8811 168.429 30.8118 167.379 31.8201L167.1 32.0886L167.397 32.2887C168.597 33.0922 169.803 33.8864 171.032 34.6506C170.057 33.7666 169.063 32.9089 168.063 32.0605C170.23 30.432 172.536 28.8989 174.971 27.9261C175.611 27.7091 176.245 27.4931 176.887 27.4809C177.194 27.4323 177.565 27.4547 177.903 27.4416C178.247 27.4304 178.6 27.4435 178.953 27.4566C180.36 27.4977 181.785 27.6062 183.207 27.6932L191.758 28.3704C194.614 28.5912 197.472 28.8072 200.346 28.9345C197.539 28.304 194.708 27.8186 191.869 27.3855C190.449 27.1732 189.028 26.9758 187.601 26.8084C186.175 26.6316 184.745 26.4838 183.311 26.3641C181.874 26.2443 180.439 26.1358 178.981 26.1237C178.771 26.119 178.562 26.1143 178.35 26.1143C178.195 26.1143 178.039 26.1162 177.881 26.1237ZM123.085 42.6817L120.827 42.7883C120.077 42.8557 119.333 42.996 118.584 43.097C117.841 43.2252 117.083 43.2775 116.35 43.4693L114.15 44.0258C113.784 44.1241 113.414 44.2045 113.052 44.3158L111.984 44.7059L109.85 45.4916C109.162 45.8106 108.487 46.1595 107.806 46.4925L106.786 46.9975C106.456 47.1827 106.141 47.396 105.817 47.5943L103.891 48.8056L102.092 50.1984C101.796 50.436 101.484 50.6539 101.203 50.9065L100.373 51.6847C99.8319 52.2151 99.2454 52.7005 98.7431 53.2674L97.2362 54.967C96.7246 55.5263 96.3177 56.168 95.8537 56.7657L95.1784 57.6777C94.967 57.9901 94.7762 58.3184 94.5751 58.6374C94.1888 59.2865 93.7613 59.9132 93.4133 60.5839C91.9569 63.2357 90.8719 66.0774 90.1217 69.0042C89.7317 70.4643 89.5091 71.974 89.3229 73.4678C89.2602 74.2124 89.1807 74.9541 89.133 75.6996L89.0386 77.9361C88.9675 80.9199 89.1237 83.9038 89.4885 86.8605C89.8205 89.5544 90.3238 92.2025 91.1011 94.8328C86.7142 94.8945 82.3272 94.9862 77.9403 95.0862L70.9512 95.2368L63.962 95.4286L70.9512 95.6203L77.9403 95.7719C82.5994 95.8766 87.2585 95.9739 91.9177 96.0357L92.724 96.0469L92.4938 95.2359C91.7147 92.4878 91.2395 89.5769 90.943 86.6968C90.6521 83.8047 90.5651 80.8928 90.6989 77.9932L90.8401 75.8221L91.058 73.6586C91.2573 72.2359 91.4808 70.8338 91.8718 69.4522C92.6192 66.6947 93.6836 64.0102 95.0979 61.5183C96.5422 59.0499 98.1978 56.6974 100.18 54.6358C100.655 54.1017 101.212 53.6509 101.723 53.1533L102.506 52.4227C102.772 52.1861 103.067 51.9831 103.346 51.7614L105.042 50.4594L106.858 49.3304C107.163 49.1461 107.458 48.945 107.769 48.7729L108.731 48.3043L110.652 47.367L112.659 46.6215L113.661 46.2474C114.001 46.1407 114.352 46.064 114.696 45.9705L116.771 45.4336C117.462 45.2484 118.183 45.1988 118.886 45.0735C119.596 44.9753 120.3 44.8368 121.014 44.7695L123.165 44.66C128.892 44.3317 134.694 45.4009 139.787 48.019C144.884 50.624 149.202 54.6892 152.382 59.5045C153.96 61.9168 155.332 64.4975 156.255 67.2223C157.145 69.9527 157.644 72.8523 157.934 75.7483C158.495 81.5682 158.033 87.4704 157.111 93.2782C158.409 87.5396 159.078 81.6177 158.78 75.6856C158.625 72.7195 158.225 69.7609 157.374 66.865C156.488 63.984 155.176 61.2705 153.59 58.7272C150.397 53.6696 145.998 49.249 140.615 46.4317C135.836 43.894 130.409 42.6265 125.026 42.6265C124.378 42.6265 123.732 42.6452 123.085 42.6817ZM69.1075 53.9689C66.6793 55.0605 64.2969 56.2475 61.9397 57.4822C59.576 58.7066 57.26 60.018 54.9581 61.35C53.8038 62.0132 52.6673 62.7053 51.5318 63.4003C50.3897 64.1112 49.2878 64.7791 48.127 65.5713L45.6941 67.2307L48.6302 66.7845L56.8691 65.5339C59.6106 65.0859 62.355 64.6612 65.0929 64.186C67.8326 63.7249 70.5686 63.2357 73.3008 62.7343L77.394 61.9346C78.756 61.6633 80.1235 61.4024 81.4695 61.0422C78.7167 61.4192 75.9564 61.7363 73.197 62.0618L64.932 63.1216L56.6773 64.2459L51.4682 65.0036C52.8348 64.1393 54.236 63.2881 55.6091 62.4434C57.8662 61.061 60.1494 59.7215 62.443 58.397C64.7431 57.0893 67.0478 55.7807 69.3928 54.5526C71.7266 53.2964 74.1081 52.1365 76.5213 51.0234C73.9968 51.8578 71.547 52.9035 69.1075 53.9689ZM65.5026 80.7759L71.0737 86.6239L71.2 86.7586C70.6883 86.9569 70.1598 87.1468 69.6342 87.332L65.8328 88.6471C63.2904 89.5095 60.7247 90.3074 58.1645 91.1072C55.6035 91.8938 53.0181 92.6356 50.4411 93.2192C49.8004 93.3577 49.1531 93.4839 48.533 93.5569C48.2318 93.5971 47.9268 93.5971 47.5948 93.6037C47.273 93.6168 46.9466 93.6084 46.6183 93.599C45.3078 93.5588 43.9824 93.44 42.6569 93.2969C40.1857 93.0125 37.7097 92.6112 35.2543 92.1576C35.4321 91.7629 35.6846 91.3775 35.9671 91.0146C36.3618 90.5094 36.8295 90.0268 37.3169 89.6105C39.587 88.6901 41.8469 87.7389 44.0993 86.7707C41.7318 87.49 39.3709 88.229 37.0213 88.9979L36.9811 89.0119L36.9352 89.0456C36.3459 89.4749 35.8212 89.9417 35.3301 90.4786C34.8503 91.0192 34.4125 91.6319 34.1571 92.3905L34 92.86L34.5089 92.9891C37.1401 93.6617 39.7853 94.2201 42.4764 94.6363C43.8233 94.8468 45.1787 95.0152 46.5603 95.0844C46.9054 95.1031 47.2515 95.1209 47.6041 95.1162C47.9446 95.119 48.315 95.1255 48.6836 95.0881C49.4038 95.0217 50.0848 94.9048 50.762 94.7757C53.4587 94.2435 56.0543 93.4802 58.6528 92.7179C61.2494 91.9537 63.8096 91.0884 66.3678 90.2111C67.6446 89.7658 68.9214 89.3225 70.1879 88.8333C70.8221 88.5901 71.4525 88.3459 72.0933 88.0718C72.256 88.0026 72.4141 87.9344 72.5937 87.8455L72.7424 87.7669L72.8462 87.7052C72.8677 87.6911 72.9276 87.6472 72.9632 87.6144L73.0221 87.5583C73.0436 87.5639 73.284 87.2197 73.2326 86.9588C73.1858 86.6903 73.1493 86.6547 73.1437 86.6547L73.1315 86.6388L73.1007 86.5968L73.0352 86.5154L72.9024 86.3545C72.7967 86.2338 72.7462 86.1871 72.6863 86.1253L72.5058 85.9439L72.1475 85.58C70.2412 83.6634 68.2928 81.8048 66.3566 79.9285C62.4617 76.201 58.5396 72.5016 54.5175 68.9022C58.1122 72.9281 61.8032 76.8576 65.5026 80.7759ZM71.7865 87.3582C71.793 87.3619 71.7958 87.3675 71.7939 87.3675C71.793 87.3675 71.7902 87.3647 71.7865 87.3582Z" fill="#EB3300"/>
<path d="M204.714 56.5232H236.504L234.145 68.4088H202.356L204.714 56.5232ZM200.375 83.6902H236.409L233.862 95.9531H182.736L195.942 29.9221H245.842L243.295 42.185H208.676L200.375 83.6902ZM238.475 95.9531L251.681 29.9221H267.057L256.303 83.5016H289.413L286.866 95.9531H238.475Z" fill="black"/>
<path d="M193.297 122.457L198.417 111.257H199.585L204.705 122.457H203.457L198.753 111.945H199.233L194.529 122.457H193.297ZM195.313 119.465L195.665 118.505H202.177L202.529 119.465H195.313ZM210.835 122.553C209.406 122.553 208.28 122.142 207.459 121.321C206.638 120.5 206.227 119.284 206.227 117.673V111.257H207.411V117.625C207.411 118.948 207.71 119.924 208.307 120.553C208.904 121.182 209.747 121.497 210.835 121.497C211.934 121.497 212.782 121.182 213.379 120.553C213.976 119.924 214.275 118.948 214.275 117.625V111.257H215.427V117.673C215.427 119.284 215.016 120.5 214.195 121.321C213.384 122.142 212.264 122.553 210.835 122.553ZM220.952 122.457V112.281H217.016V111.257H226.072V112.281H222.136V122.457H220.952ZM232.703 122.553C231.861 122.553 231.077 122.414 230.351 122.137C229.637 121.849 229.013 121.449 228.479 120.937C227.957 120.414 227.546 119.812 227.247 119.129C226.959 118.436 226.815 117.678 226.815 116.857C226.815 116.036 226.959 115.284 227.247 114.601C227.546 113.908 227.957 113.305 228.479 112.793C229.013 112.27 229.637 111.87 230.351 111.593C231.066 111.305 231.85 111.161 232.703 111.161C233.546 111.161 234.325 111.305 235.039 111.593C235.754 111.87 236.373 112.265 236.895 112.777C237.429 113.289 237.839 113.892 238.127 114.585C238.426 115.278 238.575 116.036 238.575 116.857C238.575 117.678 238.426 118.436 238.127 119.129C237.839 119.822 237.429 120.425 236.895 120.937C236.373 121.449 235.754 121.849 235.039 122.137C234.325 122.414 233.546 122.553 232.703 122.553ZM232.703 121.497C233.375 121.497 233.994 121.385 234.559 121.161C235.135 120.926 235.631 120.601 236.047 120.185C236.474 119.758 236.805 119.268 237.039 118.713C237.274 118.148 237.391 117.529 237.391 116.857C237.391 116.185 237.274 115.572 237.039 115.017C236.805 114.452 236.474 113.961 236.047 113.545C235.631 113.118 235.135 112.793 234.559 112.569C233.994 112.334 233.375 112.217 232.703 112.217C232.031 112.217 231.407 112.334 230.831 112.569C230.255 112.793 229.754 113.118 229.327 113.545C228.911 113.961 228.581 114.452 228.335 115.017C228.101 115.572 227.983 116.185 227.983 116.857C227.983 117.518 228.101 118.132 228.335 118.697C228.581 119.262 228.911 119.758 229.327 120.185C229.754 120.601 230.255 120.926 230.831 121.161C231.407 121.385 232.031 121.497 232.703 121.497ZM241.229 122.457V111.257H245.421C246.371 111.257 247.187 111.412 247.869 111.721C248.552 112.02 249.075 112.457 249.437 113.033C249.811 113.598 249.997 114.286 249.997 115.097C249.997 115.886 249.811 116.569 249.437 117.145C249.075 117.71 248.552 118.148 247.869 118.457C247.187 118.756 246.371 118.905 245.421 118.905H241.885L242.413 118.361V122.457H241.229ZM248.877 122.457L245.997 118.393H247.277L250.173 122.457H248.877ZM242.413 118.457L241.885 117.897H245.389C246.509 117.897 247.357 117.652 247.933 117.161C248.52 116.67 248.813 115.982 248.813 115.097C248.813 114.201 248.52 113.508 247.933 113.017C247.357 112.526 246.509 112.281 245.389 112.281H241.885L242.413 111.721V118.457ZM253.848 116.265H259.768V117.273H253.848V116.265ZM253.976 121.433H260.712V122.457H252.792V111.257H260.472V112.281H253.976V121.433ZM263.495 122.457V111.257H267.687C268.636 111.257 269.452 111.412 270.135 111.721C270.818 112.02 271.34 112.457 271.703 113.033C272.076 113.598 272.263 114.286 272.263 115.097C272.263 115.886 272.076 116.569 271.703 117.145C271.34 117.71 270.818 118.148 270.135 118.457C269.452 118.766 268.636 118.921 267.687 118.921H264.151L264.679 118.361V122.457H263.495ZM264.679 118.457L264.151 117.881H267.655C268.775 117.881 269.623 117.641 270.199 117.161C270.786 116.67 271.079 115.982 271.079 115.097C271.079 114.201 270.786 113.508 270.199 113.017C269.623 112.526 268.775 112.281 267.655 112.281H264.151L264.679 111.721V118.457ZM279.413 122.553C277.984 122.553 276.858 122.142 276.037 121.321C275.216 120.5 274.805 119.284 274.805 117.673V111.257H275.989V117.625C275.989 118.948 276.288 119.924 276.885 120.553C277.482 121.182 278.325 121.497 279.413 121.497C280.512 121.497 281.36 121.182 281.957 120.553C282.554 119.924 282.853 118.948 282.853 117.625V111.257H284.005V117.673C284.005 119.284 283.594 120.5 282.773 121.321C281.962 122.142 280.842 122.553 279.413 122.553ZM288.629 116.265H294.549V117.273H288.629V116.265ZM288.757 121.433H295.493V122.457H287.573V111.257H295.253V112.281H288.757V121.433ZM301.364 122.553C300.532 122.553 299.732 122.42 298.964 122.153C298.207 121.876 297.62 121.524 297.204 121.097L297.668 120.185C298.063 120.569 298.591 120.894 299.252 121.161C299.924 121.417 300.628 121.545 301.364 121.545C302.068 121.545 302.639 121.46 303.076 121.289C303.524 121.108 303.849 120.868 304.052 120.569C304.265 120.27 304.372 119.94 304.372 119.577C304.372 119.14 304.244 118.788 303.988 118.521C303.743 118.254 303.417 118.046 303.012 117.897C302.607 117.737 302.159 117.598 301.668 117.481C301.177 117.364 300.687 117.241 300.196 117.113C299.705 116.974 299.252 116.793 298.836 116.569C298.431 116.345 298.1 116.052 297.844 115.689C297.599 115.316 297.476 114.83 297.476 114.233C297.476 113.678 297.62 113.172 297.908 112.713C298.207 112.244 298.66 111.87 299.268 111.593C299.876 111.305 300.655 111.161 301.604 111.161C302.233 111.161 302.857 111.252 303.476 111.433C304.095 111.604 304.628 111.844 305.076 112.153L304.676 113.097C304.196 112.777 303.684 112.542 303.14 112.393C302.607 112.244 302.089 112.169 301.588 112.169C300.916 112.169 300.361 112.26 299.924 112.441C299.487 112.622 299.161 112.868 298.948 113.177C298.745 113.476 298.644 113.817 298.644 114.201C298.644 114.638 298.767 114.99 299.012 115.257C299.268 115.524 299.599 115.732 300.004 115.881C300.42 116.03 300.873 116.164 301.364 116.281C301.855 116.398 302.34 116.526 302.82 116.665C303.311 116.804 303.759 116.985 304.164 117.209C304.58 117.422 304.911 117.71 305.156 118.073C305.412 118.436 305.54 118.91 305.54 119.497C305.54 120.041 305.391 120.548 305.092 121.017C304.793 121.476 304.335 121.849 303.716 122.137C303.108 122.414 302.324 122.553 301.364 122.553ZM310.14 122.457V112.281H306.204V111.257H315.26V112.281H311.324V122.457H310.14ZM321.891 122.553C321.048 122.553 320.264 122.414 319.539 122.137C318.824 121.849 318.2 121.449 317.667 120.937C317.144 120.414 316.734 119.812 316.435 119.129C316.147 118.436 316.003 117.678 316.003 116.857C316.003 116.036 316.147 115.284 316.435 114.601C316.734 113.908 317.144 113.305 317.667 112.793C318.2 112.27 318.824 111.87 319.539 111.593C320.254 111.305 321.038 111.161 321.891 111.161C322.734 111.161 323.512 111.305 324.227 111.593C324.942 111.87 325.56 112.265 326.083 112.777C326.616 113.289 327.027 113.892 327.315 114.585C327.614 115.278 327.763 116.036 327.763 116.857C327.763 117.678 327.614 118.436 327.315 119.129C327.027 119.822 326.616 120.425 326.083 120.937C325.56 121.449 324.942 121.849 324.227 122.137C323.512 122.414 322.734 122.553 321.891 122.553ZM321.891 121.497C322.563 121.497 323.182 121.385 323.747 121.161C324.323 120.926 324.819 120.601 325.235 120.185C325.662 119.758 325.992 119.268 326.227 118.713C326.462 118.148 326.579 117.529 326.579 116.857C326.579 116.185 326.462 115.572 326.227 115.017C325.992 114.452 325.662 113.961 325.235 113.545C324.819 113.118 324.323 112.793 323.747 112.569C323.182 112.334 322.563 112.217 321.891 112.217C321.219 112.217 320.595 112.334 320.019 112.569C319.443 112.793 318.942 113.118 318.515 113.545C318.099 113.961 317.768 114.452 317.523 115.017C317.288 115.572 317.171 116.185 317.171 116.857C317.171 117.518 317.288 118.132 317.523 118.697C317.768 119.262 318.099 119.758 318.515 120.185C318.942 120.601 319.443 120.926 320.019 121.161C320.595 121.385 321.219 121.497 321.891 121.497ZM333.505 122.553C332.673 122.553 331.873 122.42 331.105 122.153C330.347 121.876 329.761 121.524 329.345 121.097L329.809 120.185C330.203 120.569 330.731 120.894 331.393 121.161C332.065 121.417 332.769 121.545 333.505 121.545C334.209 121.545 334.779 121.46 335.217 121.289C335.665 121.108 335.99 120.868 336.193 120.569C336.406 120.27 336.513 119.94 336.513 119.577C336.513 119.14 336.385 118.788 336.129 118.521C335.883 118.254 335.558 118.046 335.153 117.897C334.747 117.737 334.299 117.598 333.809 117.481C333.318 117.364 332.827 117.241 332.337 117.113C331.846 116.974 331.393 116.793 330.977 116.569C330.571 116.345 330.241 116.052 329.985 115.689C329.739 115.316 329.617 114.83 329.617 114.233C329.617 113.678 329.761 113.172 330.049 112.713C330.347 112.244 330.801 111.87 331.409 111.593C332.017 111.305 332.795 111.161 333.745 111.161C334.374 111.161 334.998 111.252 335.617 111.433C336.235 111.604 336.769 111.844 337.217 112.153L336.817 113.097C336.337 112.777 335.825 112.542 335.281 112.393C334.747 112.244 334.23 112.169 333.729 112.169C333.057 112.169 332.502 112.26 332.065 112.441C331.627 112.622 331.302 112.868 331.089 113.177C330.886 113.476 330.785 113.817 330.785 114.201C330.785 114.638 330.907 114.99 331.153 115.257C331.409 115.524 331.739 115.732 332.145 115.881C332.561 116.03 333.014 116.164 333.505 116.281C333.995 116.398 334.481 116.526 334.961 116.665C335.451 116.804 335.899 116.985 336.305 117.209C336.721 117.422 337.051 117.71 337.297 118.073C337.553 118.436 337.681 118.91 337.681 119.497C337.681 120.041 337.531 120.548 337.233 121.017C336.934 121.476 336.475 121.849 335.857 122.137C335.249 122.414 334.465 122.553 333.505 122.553ZM342.656 122.457L347.776 111.257H348.944L354.064 122.457H352.816L348.112 111.945H348.592L343.888 122.457H342.656ZM344.672 119.465L345.024 118.505H351.536L351.888 119.465H344.672ZM355.917 122.457V111.257H360.109C361.058 111.257 361.874 111.412 362.557 111.721C363.239 112.02 363.762 112.457 364.125 113.033C364.498 113.598 364.685 114.286 364.685 115.097C364.685 115.886 364.498 116.569 364.125 117.145C363.762 117.71 363.239 118.148 362.557 118.457C361.874 118.756 361.058 118.905 360.109 118.905H356.573L357.101 118.361V122.457H355.917ZM363.565 122.457L360.685 118.393H361.965L364.861 122.457H363.565ZM357.101 118.457L356.573 117.897H360.077C361.197 117.897 362.045 117.652 362.621 117.161C363.207 116.67 363.501 115.982 363.501 115.097C363.501 114.201 363.207 113.508 362.621 113.017C362.045 112.526 361.197 112.281 360.077 112.281H356.573L357.101 111.721V118.457ZM372.391 122.553C371.538 122.553 370.749 122.414 370.023 122.137C369.309 121.849 368.685 121.449 368.151 120.937C367.629 120.425 367.218 119.822 366.919 119.129C366.631 118.436 366.487 117.678 366.487 116.857C366.487 116.036 366.631 115.278 366.919 114.585C367.218 113.892 367.634 113.289 368.167 112.777C368.701 112.265 369.325 111.87 370.039 111.593C370.765 111.305 371.554 111.161 372.407 111.161C373.261 111.161 374.039 111.294 374.743 111.561C375.458 111.828 376.066 112.233 376.567 112.777L375.831 113.529C375.362 113.06 374.845 112.724 374.279 112.521C373.714 112.318 373.106 112.217 372.455 112.217C371.762 112.217 371.122 112.334 370.535 112.569C369.959 112.793 369.453 113.118 369.015 113.545C368.589 113.961 368.253 114.452 368.007 115.017C367.773 115.572 367.655 116.185 367.655 116.857C367.655 117.518 367.773 118.132 368.007 118.697C368.253 119.262 368.589 119.758 369.015 120.185C369.453 120.601 369.959 120.926 370.535 121.161C371.122 121.385 371.757 121.497 372.439 121.497C373.079 121.497 373.682 121.401 374.247 121.209C374.823 121.017 375.351 120.692 375.831 120.233L376.503 121.129C375.97 121.598 375.346 121.956 374.631 122.201C373.917 122.436 373.17 122.553 372.391 122.553ZM375.367 120.985V116.857H376.503V121.129L375.367 120.985ZM380.91 116.265H386.83V117.273H380.91V116.265ZM381.038 121.433H387.774V122.457H379.854V111.257H387.534V112.281H381.038V121.433ZM390.557 122.457V111.257H391.533L399.261 120.985H398.749V111.257H399.917V122.457H398.941L391.229 112.729H391.741V122.457H390.557ZM405.749 122.457V112.281H401.813V111.257H410.869V112.281H406.933V122.457H405.749ZM412.761 122.457V111.257H413.945V122.457H412.761ZM417.589 122.457V111.257H418.565L426.293 120.985H425.781V111.257H426.949V122.457H425.973L418.261 112.729H418.773V122.457H417.589ZM428.812 122.457L433.932 111.257H435.1L440.22 122.457H438.972L434.268 111.945H434.748L430.044 122.457H428.812ZM430.828 119.465L431.18 118.505H437.692L438.044 119.465H430.828Z" fill="black"/>
<path d="M47.5863 116.723L23.8703 116.987L0.154297 117.449L23.8703 117.91L47.5863 118.173L95.017 118.389L142.449 118.169C158.26 118.019 174.07 117.837 189.881 117.449C174.07 117.059 158.26 116.878 142.449 116.727L95.017 116.507L47.5863 116.723Z" fill="#EB3300"/>
<path d="M295.04 95L297 85.1999L326.774 61.8664C329.262 59.8753 331.191 58.133 332.56 56.6397C333.991 55.1463 334.987 53.7463 335.547 52.4396C336.107 51.0707 336.387 49.6707 336.387 48.2396C336.387 46.0618 335.578 44.3196 333.96 43.0129C332.343 41.7062 329.947 41.0529 326.774 41.0529C324.16 41.0529 321.64 41.644 319.214 42.8262C316.849 44.0085 314.733 45.6885 312.867 47.8663L302.693 40.4929C305.369 36.8839 309.009 33.9906 313.613 31.8128C318.218 29.635 323.351 28.5461 329.014 28.5461C333.618 28.5461 337.631 29.3239 341.054 30.8794C344.476 32.3728 347.12 34.4261 348.987 37.0395C350.916 39.6529 351.88 42.6707 351.88 46.0929C351.88 48.644 351.414 51.133 350.48 53.5596C349.547 55.9863 347.992 58.4752 345.814 61.0264C343.698 63.5153 340.711 66.2531 336.854 69.2398L312.4 88.1866L309.973 82.6799H346.934L344.507 95H295.04ZM383.973 28.5461C389.137 28.5461 393.68 29.5728 397.6 31.6261C401.582 33.6173 404.693 36.6039 406.933 40.5862C409.173 44.5062 410.293 49.4218 410.293 55.333C410.293 59.0041 409.826 62.7686 408.893 66.6264C407.96 70.422 406.497 74.0932 404.506 77.6399C402.515 81.1865 399.964 84.3599 396.853 87.1599C393.804 89.8977 390.133 92.0755 385.84 93.6933C381.546 95.3111 376.631 96.12 371.093 96.12C367.546 96.12 364.124 95.7467 360.826 95C357.528 94.2533 354.853 93.1644 352.799 91.7333L359.706 80.6265C361.448 81.8088 363.346 82.6488 365.399 83.1466C367.453 83.5821 369.63 83.7999 371.933 83.7999C374.795 83.7999 377.377 83.4266 379.679 82.6799C381.982 81.871 383.973 80.7821 385.653 79.4132C387.395 77.9821 388.857 76.3332 390.04 74.4665C391.284 72.5998 392.248 70.6087 392.933 68.4931C393.617 66.3153 394.084 64.0753 394.333 61.773C394.457 60.2175 394.52 59.0041 394.52 58.133C394.582 57.1997 394.644 56.3597 394.706 55.613L399.093 57.6663C397.786 60.7153 396.106 63.2042 394.053 65.1331C392.062 67.062 389.791 68.462 387.24 69.3331C384.688 70.2042 381.982 70.6398 379.119 70.6398C375.324 70.6398 371.808 69.9242 368.573 68.4931C365.337 66.9998 362.724 64.8531 360.733 62.0531C358.741 59.253 357.746 55.8308 357.746 51.7863C357.746 46.9951 358.866 42.8884 361.106 39.4662C363.408 35.9817 366.519 33.3061 370.439 31.4395C374.422 29.5106 378.933 28.5461 383.973 28.5461ZM384.159 39.8395C380.924 39.8395 378.217 40.7729 376.039 42.6395C373.862 44.5062 372.773 47.1196 372.773 50.4796C372.773 53.2174 373.706 55.3952 375.573 57.013C377.502 58.5686 379.991 59.3464 383.039 59.3464C385.404 59.3464 387.457 58.9108 389.2 58.0397C391.004 57.1686 392.404 55.9552 393.4 54.3997C394.395 52.8441 394.893 51.0707 394.893 49.0796C394.893 47.4618 394.457 45.9685 393.586 44.5996C392.777 43.1684 391.564 42.0173 389.946 41.1462C388.391 40.2751 386.462 39.8395 384.159 39.8395Z" fill="#EB3300"/>
</svg>
