<svg width="2048" height="640" viewBox="0 0 2048 640" fill="none" xmlns="http://www.w3.org/2000/svg">
<rect width="2048" height="640" fill="url(#paint0_linear_1059_2)"/>
<path d="M799.304 337.336C797.096 337.336 795.112 336.952 793.352 336.184C791.624 335.384 790.264 334.296 789.272 332.92C788.28 331.512 787.768 329.896 787.736 328.072H792.392C792.552 329.64 793.192 330.968 794.312 332.056C795.464 333.112 797.128 333.64 799.304 333.64C801.384 333.64 803.016 333.128 804.2 332.104C805.416 331.048 806.024 329.704 806.024 328.072C806.024 326.792 805.672 325.752 804.968 324.952C804.264 324.152 803.384 323.544 802.328 323.128C801.272 322.712 799.848 322.264 798.056 321.784C795.848 321.208 794.072 320.632 792.728 320.056C791.416 319.48 790.28 318.584 789.32 317.368C788.392 316.12 787.928 314.456 787.928 312.376C787.928 310.552 788.392 308.936 789.32 307.528C790.248 306.12 791.544 305.032 793.208 304.264C794.904 303.496 796.84 303.112 799.016 303.112C802.152 303.112 804.712 303.896 806.696 305.464C808.712 307.032 809.848 309.112 810.104 311.704H805.304C805.144 310.424 804.472 309.304 803.288 308.344C802.104 307.352 800.536 306.856 798.584 306.856C796.76 306.856 795.272 307.336 794.12 308.296C792.968 309.224 792.392 310.536 792.392 312.232C792.392 313.448 792.728 314.44 793.4 315.208C794.104 315.976 794.952 316.568 795.944 316.984C796.968 317.368 798.392 317.816 800.216 318.328C802.424 318.936 804.2 319.544 805.544 320.152C806.888 320.728 808.04 321.64 809 322.888C809.96 324.104 810.44 325.768 810.44 327.88C810.44 329.512 810.008 331.048 809.144 332.488C808.28 333.928 807 335.096 805.304 335.992C803.608 336.888 801.608 337.336 799.304 337.336ZM819.124 306.424C818.292 306.424 817.588 306.136 817.012 305.56C816.436 304.984 816.148 304.28 816.148 303.448C816.148 302.616 816.436 301.912 817.012 301.336C817.588 300.76 818.292 300.472 819.124 300.472C819.924 300.472 820.596 300.76 821.14 301.336C821.716 301.912 822.004 302.616 822.004 303.448C822.004 304.28 821.716 304.984 821.14 305.56C820.596 306.136 819.924 306.424 819.124 306.424ZM821.236 310.696V337H816.868V310.696H821.236ZM841.496 310.216C844.696 310.216 847.288 311.192 849.272 313.144C851.256 315.064 852.248 317.848 852.248 321.496V337H847.928V322.12C847.928 319.496 847.272 317.496 845.96 316.12C844.648 314.712 842.856 314.008 840.584 314.008C838.28 314.008 836.44 314.728 835.064 316.168C833.72 317.608 833.048 319.704 833.048 322.456V337H828.68V310.696H833.048V314.44C833.912 313.096 835.08 312.056 836.552 311.32C838.056 310.584 839.704 310.216 841.496 310.216ZM876.548 315.592C877.444 314.024 878.756 312.744 880.484 311.752C882.212 310.76 884.18 310.264 886.388 310.264C888.756 310.264 890.884 310.824 892.772 311.944C894.66 313.064 896.148 314.648 897.236 316.696C898.324 318.712 898.868 321.064 898.868 323.752C898.868 326.408 898.324 328.776 897.236 330.856C896.148 332.936 894.644 334.552 892.724 335.704C890.836 336.856 888.724 337.432 886.388 337.432C884.116 337.432 882.116 336.936 880.388 335.944C878.692 334.952 877.412 333.688 876.548 332.152V337H872.18V301.48H876.548V315.592ZM894.404 323.752C894.404 321.768 894.004 320.04 893.204 318.568C892.404 317.096 891.316 315.976 889.94 315.208C888.596 314.44 887.108 314.056 885.476 314.056C883.876 314.056 882.388 314.456 881.012 315.256C879.668 316.024 878.58 317.16 877.748 318.664C876.948 320.136 876.548 321.848 876.548 323.8C876.548 325.784 876.948 327.528 877.748 329.032C878.58 330.504 879.668 331.64 881.012 332.44C882.388 333.208 883.876 333.592 885.476 333.592C887.108 333.592 888.596 333.208 889.94 332.44C891.316 331.64 892.404 330.504 893.204 329.032C894.004 327.528 894.404 325.768 894.404 323.752ZM902.986 323.752C902.986 321.064 903.53 318.712 904.618 316.696C905.706 314.648 907.194 313.064 909.082 311.944C911.002 310.824 913.13 310.264 915.466 310.264C917.77 310.264 919.77 310.76 921.466 311.752C923.162 312.744 924.426 313.992 925.258 315.496V310.696H929.674V337H925.258V332.104C924.394 333.64 923.098 334.92 921.37 335.944C919.674 336.936 917.69 337.432 915.418 337.432C913.082 337.432 910.97 336.856 909.082 335.704C907.194 334.552 905.706 332.936 904.618 330.856C903.53 328.776 902.986 326.408 902.986 323.752ZM925.258 323.8C925.258 321.816 924.858 320.088 924.058 318.616C923.258 317.144 922.17 316.024 920.794 315.256C919.45 314.456 917.962 314.056 916.33 314.056C914.698 314.056 913.21 314.44 911.866 315.208C910.522 315.976 909.45 317.096 908.65 318.568C907.85 320.04 907.45 321.768 907.45 323.752C907.45 325.768 907.85 327.528 908.65 329.032C909.45 330.504 910.522 331.64 911.866 332.44C913.21 333.208 914.698 333.592 916.33 333.592C917.962 333.592 919.45 333.208 920.794 332.44C922.17 331.64 923.258 330.504 924.058 329.032C924.858 327.528 925.258 325.784 925.258 323.8ZM949.871 310.216C953.071 310.216 955.663 311.192 957.647 313.144C959.631 315.064 960.623 317.848 960.623 321.496V337H956.303V322.12C956.303 319.496 955.647 317.496 954.335 316.12C953.023 314.712 951.231 314.008 948.959 314.008C946.655 314.008 944.815 314.728 943.439 316.168C942.095 317.608 941.423 319.704 941.423 322.456V337H937.055V310.696H941.423V314.44C942.287 313.096 943.455 312.056 944.927 311.32C946.431 310.584 948.079 310.216 949.871 310.216ZM980.575 310.216C983.775 310.216 986.367 311.192 988.351 313.144C990.335 315.064 991.327 317.848 991.327 321.496V337H987.007V322.12C987.007 319.496 986.351 317.496 985.039 316.12C983.727 314.712 981.935 314.008 979.663 314.008C977.359 314.008 975.519 314.728 974.143 316.168C972.799 317.608 972.127 319.704 972.127 322.456V337H967.759V310.696H972.127V314.44C972.991 313.096 974.159 312.056 975.631 311.32C977.135 310.584 978.783 310.216 980.575 310.216ZM1022.46 322.84C1022.46 323.672 1022.41 324.552 1022.32 325.48H1001.29C1001.45 328.072 1002.33 330.104 1003.93 331.576C1005.57 333.016 1007.53 333.736 1009.84 333.736C1011.73 333.736 1013.29 333.304 1014.54 332.44C1015.82 331.544 1016.72 330.36 1017.23 328.888H1021.93C1021.23 331.416 1019.82 333.48 1017.71 335.08C1015.6 336.648 1012.97 337.432 1009.84 337.432C1007.34 337.432 1005.1 336.872 1003.12 335.752C1001.17 334.632 999.63 333.048 998.51 331C997.39 328.92 996.83 326.52 996.83 323.8C996.83 321.08 997.374 318.696 998.462 316.648C999.55 314.6 1001.07 313.032 1003.02 311.944C1005.01 310.824 1007.28 310.264 1009.84 310.264C1012.33 310.264 1014.54 310.808 1016.46 311.896C1018.38 312.984 1019.85 314.488 1020.88 316.408C1021.93 318.296 1022.46 320.44 1022.46 322.84ZM1017.95 321.928C1017.95 320.264 1017.58 318.84 1016.85 317.656C1016.11 316.44 1015.1 315.528 1013.82 314.92C1012.57 314.28 1011.18 313.96 1009.65 313.96C1007.44 313.96 1005.55 314.664 1003.98 316.072C1002.45 317.48 1001.57 319.432 1001.34 321.928H1017.95ZM1032.6 314.968C1033.36 313.464 1034.45 312.296 1035.86 311.464C1037.3 310.632 1039.04 310.216 1041.09 310.216V314.728H1039.94C1035.04 314.728 1032.6 317.384 1032.6 322.696V337H1028.23V310.696H1032.6V314.968ZM1057.3 323.8C1057.3 321.08 1057.84 318.712 1058.93 316.696C1060.02 314.648 1061.52 313.064 1063.44 311.944C1065.39 310.824 1067.62 310.264 1070.11 310.264C1073.35 310.264 1076 311.048 1078.08 312.616C1080.19 314.184 1081.59 316.36 1082.26 319.144H1077.55C1077.11 317.544 1076.23 316.28 1074.91 315.352C1073.63 314.424 1072.03 313.96 1070.11 313.96C1067.62 313.96 1065.6 314.824 1064.07 316.552C1062.53 318.248 1061.76 320.664 1061.76 323.8C1061.76 326.968 1062.53 329.416 1064.07 331.144C1065.6 332.872 1067.62 333.736 1070.11 333.736C1072.03 333.736 1073.63 333.288 1074.91 332.392C1076.19 331.496 1077.07 330.216 1077.55 328.552H1082.26C1081.55 331.24 1080.15 333.4 1078.03 335.032C1075.92 336.632 1073.28 337.432 1070.11 337.432C1067.62 337.432 1065.39 336.872 1063.44 335.752C1061.52 334.632 1060.02 333.048 1058.93 331C1057.84 328.952 1057.3 326.552 1057.3 323.8ZM1086.45 323.752C1086.45 321.064 1087 318.712 1088.09 316.696C1089.17 314.648 1090.66 313.064 1092.55 311.944C1094.47 310.824 1096.6 310.264 1098.93 310.264C1101.24 310.264 1103.24 310.76 1104.93 311.752C1106.63 312.744 1107.89 313.992 1108.73 315.496V310.696H1113.14V337H1108.73V332.104C1107.86 333.64 1106.57 334.92 1104.84 335.944C1103.14 336.936 1101.16 337.432 1098.89 337.432C1096.55 337.432 1094.44 336.856 1092.55 335.704C1090.66 334.552 1089.17 332.936 1088.09 330.856C1087 328.776 1086.45 326.408 1086.45 323.752ZM1108.73 323.8C1108.73 321.816 1108.33 320.088 1107.53 318.616C1106.73 317.144 1105.64 316.024 1104.26 315.256C1102.92 314.456 1101.43 314.056 1099.8 314.056C1098.17 314.056 1096.68 314.44 1095.33 315.208C1093.99 315.976 1092.92 317.096 1092.12 318.568C1091.32 320.04 1090.92 321.768 1090.92 323.752C1090.92 325.768 1091.32 327.528 1092.12 329.032C1092.92 330.504 1093.99 331.64 1095.33 332.44C1096.68 333.208 1098.17 333.592 1099.8 333.592C1101.43 333.592 1102.92 333.208 1104.26 332.44C1105.64 331.64 1106.73 330.504 1107.53 329.032C1108.33 327.528 1108.73 325.784 1108.73 323.8ZM1124.89 314.968C1125.66 313.464 1126.75 312.296 1128.16 311.464C1129.6 310.632 1131.34 310.216 1133.39 310.216V314.728H1132.24C1127.34 314.728 1124.89 317.384 1124.89 322.696V337H1120.52V310.696H1124.89V314.968ZM1149.28 310.264C1151.55 310.264 1153.53 310.76 1155.23 311.752C1156.96 312.744 1158.24 313.992 1159.07 315.496V310.696H1163.49V337.576C1163.49 339.976 1162.97 342.104 1161.95 343.96C1160.93 345.848 1159.45 347.32 1157.53 348.376C1155.65 349.432 1153.44 349.96 1150.91 349.96C1147.45 349.96 1144.57 349.144 1142.27 347.512C1139.97 345.88 1138.61 343.656 1138.19 340.84H1142.51C1142.99 342.44 1143.98 343.72 1145.49 344.68C1146.99 345.672 1148.8 346.168 1150.91 346.168C1153.31 346.168 1155.26 345.416 1156.77 343.912C1158.3 342.408 1159.07 340.296 1159.07 337.576V332.056C1158.21 333.592 1156.93 334.872 1155.23 335.896C1153.53 336.92 1151.55 337.432 1149.28 337.432C1146.94 337.432 1144.81 336.856 1142.89 335.704C1141.01 334.552 1139.52 332.936 1138.43 330.856C1137.34 328.776 1136.8 326.408 1136.8 323.752C1136.8 321.064 1137.34 318.712 1138.43 316.696C1139.52 314.648 1141.01 313.064 1142.89 311.944C1144.81 310.824 1146.94 310.264 1149.28 310.264ZM1159.07 323.8C1159.07 321.816 1158.67 320.088 1157.87 318.616C1157.07 317.144 1155.98 316.024 1154.61 315.256C1153.26 314.456 1151.77 314.056 1150.14 314.056C1148.51 314.056 1147.02 314.44 1145.68 315.208C1144.33 315.976 1143.26 317.096 1142.46 318.568C1141.66 320.04 1141.26 321.768 1141.26 323.752C1141.26 325.768 1141.66 327.528 1142.46 329.032C1143.26 330.504 1144.33 331.64 1145.68 332.44C1147.02 333.208 1148.51 333.592 1150.14 333.592C1151.77 333.592 1153.26 333.208 1154.61 332.44C1155.98 331.64 1157.07 330.504 1157.87 329.032C1158.67 327.528 1159.07 325.784 1159.07 323.8ZM1169.24 323.752C1169.24 321.064 1169.78 318.712 1170.87 316.696C1171.96 314.648 1173.44 313.064 1175.33 311.944C1177.25 310.824 1179.38 310.264 1181.72 310.264C1184.02 310.264 1186.02 310.76 1187.72 311.752C1189.41 312.744 1190.68 313.992 1191.51 315.496V310.696H1195.92V337H1191.51V332.104C1190.64 333.64 1189.35 334.92 1187.62 335.944C1185.92 336.936 1183.94 337.432 1181.67 337.432C1179.33 337.432 1177.22 336.856 1175.33 335.704C1173.44 334.552 1171.96 332.936 1170.87 330.856C1169.78 328.776 1169.24 326.408 1169.24 323.752ZM1191.51 323.8C1191.51 321.816 1191.11 320.088 1190.31 318.616C1189.51 317.144 1188.42 316.024 1187.04 315.256C1185.7 314.456 1184.21 314.056 1182.58 314.056C1180.95 314.056 1179.46 314.44 1178.12 315.208C1176.77 315.976 1175.7 317.096 1174.9 318.568C1174.1 320.04 1173.7 321.768 1173.7 323.752C1173.7 325.768 1174.1 327.528 1174.9 329.032C1175.7 330.504 1176.77 331.64 1178.12 332.44C1179.46 333.208 1180.95 333.592 1182.58 333.592C1184.21 333.592 1185.7 333.208 1187.04 332.44C1188.42 331.64 1189.51 330.504 1190.31 329.032C1191.11 327.528 1191.51 325.784 1191.51 323.8ZM1201.67 323.752C1201.67 321.064 1202.22 318.712 1203.31 316.696C1204.39 314.648 1205.88 313.064 1207.77 311.944C1209.69 310.824 1211.83 310.264 1214.2 310.264C1216.25 310.264 1218.15 310.744 1219.91 311.704C1221.67 312.632 1223.02 313.864 1223.95 315.4V301.48H1228.36V337H1223.95V332.056C1223.08 333.624 1221.8 334.92 1220.11 335.944C1218.41 336.936 1216.43 337.432 1214.15 337.432C1211.82 337.432 1209.69 336.856 1207.77 335.704C1205.88 334.552 1204.39 332.936 1203.31 330.856C1202.22 328.776 1201.67 326.408 1201.67 323.752ZM1223.95 323.8C1223.95 321.816 1223.55 320.088 1222.75 318.616C1221.95 317.144 1220.86 316.024 1219.48 315.256C1218.14 314.456 1216.65 314.056 1215.02 314.056C1213.39 314.056 1211.9 314.44 1210.55 315.208C1209.21 315.976 1208.14 317.096 1207.34 318.568C1206.54 320.04 1206.14 321.768 1206.14 323.752C1206.14 325.768 1206.54 327.528 1207.34 329.032C1208.14 330.504 1209.21 331.64 1210.55 332.44C1211.9 333.208 1213.39 333.592 1215.02 333.592C1216.65 333.592 1218.14 333.208 1219.48 332.44C1220.86 331.64 1221.95 330.504 1222.75 329.032C1223.55 327.528 1223.95 325.784 1223.95 323.8ZM1247.21 337.432C1244.75 337.432 1242.51 336.872 1240.49 335.752C1238.51 334.632 1236.94 333.048 1235.79 331C1234.67 328.92 1234.11 326.52 1234.11 323.8C1234.11 321.112 1234.69 318.744 1235.84 316.696C1237.02 314.616 1238.62 313.032 1240.64 311.944C1242.65 310.824 1244.91 310.264 1247.41 310.264C1249.9 310.264 1252.16 310.824 1254.17 311.944C1256.19 313.032 1257.77 314.6 1258.93 316.648C1260.11 318.696 1260.7 321.08 1260.7 323.8C1260.7 326.52 1260.09 328.92 1258.88 331C1257.69 333.048 1256.08 334.632 1254.03 335.752C1251.98 336.872 1249.71 337.432 1247.21 337.432ZM1247.21 333.592C1248.78 333.592 1250.25 333.224 1251.63 332.488C1253.01 331.752 1254.11 330.648 1254.94 329.176C1255.81 327.704 1256.24 325.912 1256.24 323.8C1256.24 321.688 1255.82 319.896 1254.99 318.424C1254.16 316.952 1253.07 315.864 1251.73 315.16C1250.38 314.424 1248.93 314.056 1247.36 314.056C1245.76 314.056 1244.29 314.424 1242.94 315.16C1241.63 315.864 1240.57 316.952 1239.77 318.424C1238.97 319.896 1238.57 321.688 1238.57 323.8C1238.57 325.944 1238.96 327.752 1239.73 329.224C1240.53 330.696 1241.58 331.8 1242.89 332.536C1244.21 333.24 1245.65 333.592 1247.21 333.592Z" fill="white"/>
<defs>
<linearGradient id="paint0_linear_1059_2" x1="1024" y1="0" x2="1024" y2="640" gradientUnits="userSpaceOnUse">
<stop stop-color="#111111"/>
<stop offset="1" stop-color="#323232"/>
</linearGradient>
</defs>
</svg>
